<svg width="36" height="36" viewBox="0 0 36 36" fill="none" xmlns="http://www.w3.org/2000/svg">
<circle cx="18" cy="18" r="18" fill="#1F1F22"/>
<path fill-rule="evenodd" clip-rule="evenodd" d="M12.6453 11.5749C11.2628 12.2069 10.25 13.71 10.25 15.5024C10.25 17.3335 10.9993 18.745 12.0736 19.9546C12.9589 20.9515 14.0307 21.7778 15.0759 22.5836C15.3242 22.775 15.571 22.9653 15.8134 23.1563C16.2517 23.5019 16.6428 23.8052 17.0197 24.0255C17.3968 24.2458 17.7003 24.3464 17.9583 24.3464C18.2163 24.3464 18.5199 24.2458 18.897 24.0255C19.2739 23.8052 19.6649 23.5019 20.1033 23.1563C20.3457 22.9653 20.5925 22.775 20.8407 22.5836C21.886 21.7778 22.9577 20.9515 23.8431 19.9546C24.9173 18.745 25.6667 17.3335 25.6667 15.5024C25.6667 13.71 24.6539 12.2069 23.2714 11.5749C21.9283 10.961 20.1236 11.1236 18.4086 12.9054C18.2908 13.0278 18.1282 13.097 17.9583 13.097C17.7884 13.097 17.6258 13.0278 17.508 12.9054C15.7931 11.1236 13.9884 10.961 12.6453 11.5749ZM17.9583 11.6038C16.0316 9.87998 13.8741 9.63883 12.1256 10.4381C10.2789 11.2822 9 13.2423 9 15.5024C9 17.7236 9.92541 19.4182 11.1389 20.7846C12.1107 21.8789 13.3002 22.7947 14.3507 23.6036C14.5888 23.787 14.8198 23.9648 15.0395 24.138C15.4664 24.4745 15.9246 24.8333 16.389 25.1047C16.8532 25.376 17.383 25.5964 17.9583 25.5964C18.5337 25.5964 19.0634 25.376 19.5276 25.1047C19.992 24.8333 20.4503 24.4745 20.8771 24.138C21.0968 23.9648 21.3278 23.787 21.566 23.6036C22.6165 22.7947 23.8059 21.8789 24.7777 20.7846C25.9913 19.4182 26.9167 17.7236 26.9167 15.5024C26.9167 13.2423 25.6377 11.2822 23.791 10.4381C22.0425 9.63883 19.885 9.87998 17.9583 11.6038Z" fill="#877EFF"/>
</svg>
