<svg width="32" height="32" viewBox="0 0 32 32" fill="none" xmlns="http://www.w3.org/2000/svg">
<path fill-rule="evenodd" clip-rule="evenodd" d="M12.5 0.875C8.56497 0.875 5.375 4.06497 5.375 8C5.375 11.935 8.56497 15.125 12.5 15.125C16.435 15.125 19.625 11.935 19.625 8C19.625 4.06497 16.435 0.875 12.5 0.875ZM7.625 8C7.625 5.30761 9.80761 3.125 12.5 3.125C15.1924 3.125 17.375 5.30761 17.375 8C17.375 10.6924 15.1924 12.875 12.5 12.875C9.80761 12.875 7.625 10.6924 7.625 8Z" fill="white"/>
<path d="M21.5 2.375C20.8787 2.375 20.375 2.87868 20.375 3.5C20.375 4.12132 20.8787 4.625 21.5 4.625C23.364 4.625 24.875 6.13604 24.875 8C24.875 9.86396 23.364 11.375 21.5 11.375C20.8787 11.375 20.375 11.8787 20.375 12.5C20.375 13.1213 20.8787 13.625 21.5 13.625C24.6066 13.625 27.125 11.1066 27.125 8C27.125 4.8934 24.6066 2.375 21.5 2.375Z" fill="white"/>
<path fill-rule="evenodd" clip-rule="evenodd" d="M4.51722 19.2806C6.61628 18.0811 9.441 17.375 12.5 17.375C15.559 17.375 18.3837 18.0811 20.4828 19.2806C22.55 20.4619 24.125 22.2652 24.125 24.5C24.125 26.7348 22.55 28.5381 20.4828 29.7194C18.3837 30.9189 15.559 31.625 12.5 31.625C9.441 31.625 6.61628 30.9189 4.51722 29.7194C2.45 28.5381 0.875 26.7348 0.875 24.5C0.875 22.2652 2.45 20.4619 4.51722 19.2806ZM5.63354 21.2341C3.90051 22.2244 3.125 23.4211 3.125 24.5C3.125 25.5789 3.90051 26.7756 5.63354 27.7659C7.33473 28.738 9.76001 29.375 12.5 29.375C15.24 29.375 17.6653 28.738 19.3665 27.7659C21.0995 26.7756 21.875 25.5789 21.875 24.5C21.875 23.4211 21.0995 22.2244 19.3665 21.2341C17.6653 20.262 15.24 19.625 12.5 19.625C9.76001 19.625 7.33473 20.262 5.63354 21.2341Z" fill="white"/>
<path d="M26.241 18.9011C25.6341 18.768 25.0342 19.1521 24.9011 19.759C24.768 20.3659 25.1521 20.9658 25.759 21.0989C26.9476 21.3595 27.8974 21.8072 28.5243 22.3202C29.1521 22.8339 29.375 23.3355 29.375 23.75C29.375 24.1261 29.1941 24.5676 28.6954 25.0308C28.193 25.4975 27.4212 25.9287 26.4256 26.2284C25.8307 26.4076 25.4936 27.0351 25.6728 27.63C25.8519 28.2249 26.4794 28.562 27.0744 28.3829C28.3082 28.0114 29.4114 27.4367 30.2267 26.6793C31.0456 25.9186 31.625 24.9179 31.625 23.75C31.625 22.4529 30.9136 21.3681 29.9492 20.5789C28.9839 19.789 27.6838 19.2175 26.241 18.9011Z" fill="white"/>
</svg>
