<svg width="20" height="20" viewBox="0 0 20 20" fill="none" xmlns="http://www.w3.org/2000/svg">
<path fill-rule="evenodd" clip-rule="evenodd" d="M5.7164 1.04151C5.74119 1.04151 5.76632 1.04152 5.7918 1.04152L5.82262 1.04152C6.11548 1.0415 6.30393 1.04148 6.48817 1.05871C7.28091 1.13284 8.03287 1.44431 8.64583 1.95244C8.7883 2.07054 8.92155 2.20381 9.12862 2.41091L9.60895 2.89124C10.3137 3.596 10.5847 3.85909 10.8976 4.03321C11.0793 4.13429 11.272 4.21411 11.472 4.27111C11.8164 4.36928 12.194 4.37485 13.1907 4.37485L13.5445 4.37485C14.6053 4.37484 15.4604 4.37482 16.137 4.45989C16.8382 4.54804 17.434 4.73615 17.9234 5.17638C18.0054 5.2501 18.0834 5.32812 18.1571 5.41009C18.5974 5.89955 18.7855 6.49533 18.8736 7.19651C18.9587 7.87309 18.9587 8.72823 18.9587 9.78901V11.7135C18.9587 13.245 18.9587 14.458 18.8311 15.4074C18.6997 16.3844 18.4229 17.1752 17.7993 17.7988C17.1757 18.4225 16.3849 18.6992 15.4079 18.8306C14.4585 18.9582 13.2455 18.9582 11.714 18.9582H8.28666C6.7552 18.9582 5.54217 18.9582 4.59282 18.8306C3.6158 18.6992 2.82501 18.4225 2.20138 17.7988C1.57774 17.1752 1.30097 16.3844 1.16962 15.4074C1.04198 14.458 1.04199 13.245 1.04201 11.7135L1.04201 5.79131C1.04201 5.76583 1.042 5.7407 1.042 5.71591C1.04191 5.05265 1.04185 4.63055 1.11063 4.26596C1.41274 2.66474 2.66523 1.41226 4.26645 1.11015C4.63104 1.04136 5.05314 1.04142 5.7164 1.04151ZM5.7918 2.29152C5.02793 2.29152 4.7326 2.29425 4.4982 2.33847C3.40263 2.54518 2.54567 3.40214 2.33896 4.49772C2.29474 4.73211 2.29201 5.02744 2.29201 5.79131V11.6665C2.29201 13.2555 2.29333 14.3844 2.40847 15.2408C2.52119 16.0792 2.73258 16.5623 3.08526 16.9149C3.43793 17.2676 3.92097 17.479 4.75938 17.5917C5.61577 17.7069 6.74466 17.7082 8.33367 17.7082H11.667C13.256 17.7082 14.3849 17.7069 15.2413 17.5917C16.0797 17.479 16.5627 17.2676 16.9154 16.9149C17.2681 16.5623 17.4795 16.0792 17.5922 15.2408C17.7073 14.3844 17.7087 13.2555 17.7087 11.6665V9.83144C17.7087 8.71823 17.7075 7.94192 17.6334 7.35244C17.5613 6.77857 17.4288 6.46947 17.2278 6.246C17.1835 6.19681 17.1367 6.15001 17.0875 6.10577C16.8641 5.90477 16.555 5.77227 15.9811 5.70012C15.3916 5.62601 14.6153 5.62485 13.5021 5.62485H13.1907C13.1597 5.62485 13.1291 5.62486 13.0988 5.62486C12.2255 5.62504 11.6623 5.62516 11.1293 5.47322C10.8371 5.38993 10.5554 5.27326 10.2899 5.12553C9.80557 4.85607 9.40742 4.45775 8.79003 3.84011C8.76864 3.81871 8.74699 3.79705 8.72507 3.77513L8.26652 3.31658C8.03046 3.08052 7.94014 2.99109 7.84808 2.91478C7.42869 2.56711 6.91419 2.354 6.37179 2.30328C6.25274 2.29215 6.12564 2.29152 5.7918 2.29152ZM10.0003 9.19526C9.95189 9.27913 9.89802 9.37571 9.83454 9.48959L9.75261 9.63656C9.74683 9.64693 9.74064 9.65826 9.734 9.6704C9.66856 9.79008 9.56019 9.98827 9.37948 10.1254C9.195 10.2655 8.97309 10.3137 8.84333 10.3419C8.83033 10.3447 8.81826 10.3473 8.80724 10.3498L8.64815 10.3858C8.50217 10.4188 8.38326 10.4458 8.28159 10.4713C8.34772 10.5527 8.43363 10.6538 8.54536 10.7845L8.65382 10.9113C8.66151 10.9203 8.66988 10.9299 8.67879 10.9402C8.76874 11.0438 8.91396 11.2111 8.98111 11.427C9.04748 11.6404 9.02459 11.8602 9.01014 11.9989C9.0087 12.0127 9.00735 12.0257 9.00617 12.0379L8.98978 12.2071C8.97457 12.364 8.96275 12.4892 8.95488 12.591C9.04172 12.5527 9.1405 12.5073 9.25786 12.4533L9.40682 12.3847C9.41707 12.38 9.42831 12.3747 9.44046 12.3689C9.56004 12.3125 9.76812 12.2144 10.0003 12.2144C10.2326 12.2144 10.4406 12.3125 10.5602 12.3689C10.5724 12.3747 10.5836 12.38 10.5939 12.3847L10.7428 12.4533C10.8602 12.5073 10.959 12.5527 11.0458 12.591C11.0379 12.4892 11.0261 12.364 11.0109 12.2071L10.9945 12.0379C10.9933 12.0257 10.992 12.0127 10.9905 11.9989C10.9761 11.8602 10.9532 11.6404 11.0196 11.427C11.0867 11.2111 11.2319 11.0438 11.3219 10.9402C11.3308 10.9299 11.3392 10.9203 11.3469 10.9113L11.4553 10.7845C11.5671 10.6538 11.653 10.5527 11.7191 10.4713C11.6174 10.4458 11.4985 10.4188 11.3525 10.3858L11.1934 10.3498C11.1824 10.3473 11.1704 10.3447 11.1574 10.3419C11.0276 10.3137 10.8057 10.2655 10.6212 10.1254C10.4405 9.98827 10.3321 9.79008 10.2667 9.6704C10.26 9.65826 10.2538 9.64693 10.2481 9.63656L10.1661 9.48959C10.1027 9.37571 10.0488 9.27913 10.0003 9.19526ZM9.17825 8.16621C9.32173 7.97886 9.58226 7.70818 10.0003 7.70818C10.4184 7.70818 10.679 7.97886 10.8224 8.16621C10.9594 8.34503 11.0973 8.59255 11.2387 8.84632C11.2451 8.85786 11.2515 8.86941 11.258 8.88096L11.3399 9.02793C11.3589 9.06201 11.3738 9.08883 11.3869 9.11176C11.4097 9.11711 11.4362 9.12312 11.4693 9.13061L11.6284 9.1666C11.6414 9.16955 11.6544 9.17249 11.6675 9.17544C11.9407 9.23717 12.2121 9.29851 12.4205 9.38064C12.6507 9.47133 12.9626 9.64794 13.0828 10.0345C13.2009 10.4143 13.0519 10.736 12.9217 10.9427C12.8013 11.1341 12.6182 11.3481 12.4307 11.5671C12.4223 11.577 12.4138 11.5869 12.4053 11.5969L12.2969 11.7237C12.2681 11.7573 12.2465 11.7826 12.2282 11.8046C12.2307 11.8348 12.2341 11.8701 12.2387 11.9173L12.2551 12.0865C12.2563 12.0994 12.2576 12.1123 12.2588 12.1252C12.2873 12.4184 12.3148 12.7019 12.3047 12.9286C12.2941 13.1663 12.2371 13.5261 11.9145 13.771C11.5816 14.0237 11.214 13.9686 10.9809 13.9019C10.7661 13.8403 10.5124 13.7234 10.2568 13.6056C10.2445 13.6 10.2323 13.5943 10.22 13.5887L10.0711 13.5201C10.0432 13.5073 10.0203 13.4967 10.0003 13.4877C9.98038 13.4967 9.95748 13.5073 9.9296 13.5201L9.78065 13.5887C9.76841 13.5943 9.75616 13.6 9.74392 13.6056C9.48832 13.7234 9.23454 13.8403 9.01975 13.9019C8.78665 13.9686 8.41906 14.0237 8.08622 13.771C7.76358 13.5261 7.70653 13.1663 7.69595 12.9286C7.68585 12.7019 7.71337 12.4184 7.74185 12.1252C7.7431 12.1123 7.74435 12.0994 7.7456 12.0865L7.762 11.9173C7.76657 11.8701 7.76997 11.8349 7.77246 11.8046C7.75422 11.7826 7.73256 11.7573 7.70382 11.7237L7.59536 11.5969C7.58688 11.5869 7.5784 11.577 7.56993 11.5671C7.3825 11.3481 7.19943 11.1341 7.07897 10.9427C6.94882 10.736 6.79979 10.4143 6.91789 10.0345C7.0381 9.64794 7.35002 9.47133 7.58014 9.38064C7.78854 9.29851 8.06003 9.23717 8.3332 9.17544C8.34623 9.17249 8.35927 9.16955 8.3723 9.1666L8.53139 9.13061C8.56449 9.12312 8.59098 9.11711 8.61375 9.11176C8.62684 9.08883 8.6418 9.06201 8.6608 9.02793L8.74272 8.88096C8.74916 8.86941 8.7556 8.85786 8.76202 8.84632C8.90341 8.59255 9.04132 8.34503 9.17825 8.16621Z" fill="#877EFF"/>
</svg>
