<svg width="20" height="20" viewBox="0 0 20 20" fill="none" xmlns="http://www.w3.org/2000/svg">
<g clip-path="url(#clip0_1_1786)">
<path d="M3.94049 13.4472C2.65254 12.1593 2.00857 11.5153 1.76895 10.6798C1.52933 9.84431 1.73411 8.95692 2.14368 7.18213L2.37986 6.15865C2.72443 4.66551 2.89672 3.91894 3.40795 3.40771C3.91918 2.89648 4.66575 2.72419 6.15889 2.37962L7.18238 2.14343C8.95716 1.73387 9.84455 1.52908 10.6801 1.7687C11.5156 2.00832 12.1595 2.6523 13.4475 3.94024L14.9722 5.46494C17.213 7.70576 18.3334 8.82617 18.3334 10.2184C18.3334 11.6107 17.213 12.7311 14.9722 14.9719C12.7314 17.2128 11.611 18.3332 10.2187 18.3332C8.82641 18.3332 7.706 17.2128 5.46518 14.9719L3.94049 13.4472Z" stroke="#877EFF" stroke-width="1.5"/>
<circle cx="7.17245" cy="7.39941" r="1.66667" transform="rotate(-45 7.17245 7.39941)" stroke="#877EFF" stroke-width="1.5"/>
<path d="M9.61812 15.4165L15.434 9.60046" stroke="#877EFF" stroke-width="1.5" stroke-linecap="round"/>
</g>
<defs>
<clipPath id="clip0_1_1786">
<rect width="20" height="20" fill="white"/>
</clipPath>
</defs>
</svg>
