<svg width="30" height="34" viewBox="0 0 30 34" fill="none" xmlns="http://www.w3.org/2000/svg">
<path d="M10.5 6.875C9.87868 6.875 9.375 7.37868 9.375 8C9.375 8.62132 9.87868 9.125 10.5 9.125H19.5C20.1213 9.125 20.625 8.62132 20.625 8C20.625 7.37868 20.1213 6.875 19.5 6.875H10.5Z" fill="white"/>
<path fill-rule="evenodd" clip-rule="evenodd" d="M14.9138 0.875C11.8049 0.874978 9.35573 0.874961 7.44192 1.13505C5.47682 1.40212 3.90914 1.96203 2.67726 3.20725C1.44704 4.4508 0.895379 6.03053 0.63195 8.01112C0.374964 9.94327 0.37498 12.4169 0.375 15.5616V23.2085C0.374984 25.4698 0.374971 27.2603 0.519015 28.6082C0.661366 29.9403 0.96671 31.1421 1.83876 31.9457C2.53839 32.5905 3.42316 32.997 4.36748 33.105C5.54868 33.2402 6.65158 32.6762 7.73803 31.9066C8.83744 31.1278 10.1711 29.9482 11.8538 28.4599L11.9086 28.4114C12.6887 27.7214 13.2168 27.2558 13.6575 26.9336C14.0834 26.6222 14.3434 26.5096 14.5626 26.4655C14.8514 26.4073 15.1486 26.4073 15.4374 26.4655C15.6566 26.5096 15.9166 26.6222 16.3425 26.9336C16.7832 27.2558 17.3113 27.7214 18.0914 28.4114L18.1463 28.4599C19.8289 29.9482 21.1626 31.1278 22.262 31.9066C23.3484 32.6761 24.4513 33.2402 25.6325 33.105C26.5768 32.997 27.4616 32.5905 28.1612 31.9457C29.0333 31.1421 29.3386 29.9403 29.481 28.6082C29.625 27.2603 29.625 25.4699 29.625 23.2086V15.5616C29.625 12.4169 29.625 9.94325 29.3681 8.01112C29.1046 6.03053 28.553 4.4508 27.3227 3.20726C26.0909 1.96203 24.5232 1.40212 22.5581 1.13505C20.6443 0.874961 18.1951 0.874978 15.0862 0.875H14.9138ZM4.2768 4.78965C5.02195 4.03643 6.03377 3.59711 7.74492 3.36456C9.48968 3.12744 11.7859 3.125 15 3.125C18.2141 3.125 20.5103 3.12744 22.2551 3.36456C23.9662 3.59711 24.9781 4.03643 25.7232 4.78965C26.47 5.54455 26.9069 6.57228 27.1377 8.30777C27.3727 10.0744 27.375 12.3983 27.375 15.6463V23.1364C27.375 25.4858 27.3734 27.1553 27.2437 28.3691C27.1108 29.6132 26.8656 30.08 26.6364 30.2912C26.2857 30.6144 25.8447 30.8161 25.3767 30.8696C25.0773 30.9039 24.5753 30.7879 23.5625 30.0705C22.5746 29.3707 21.3317 28.2735 19.5821 26.7261L19.5428 26.6913C18.8119 26.0449 18.2058 25.5087 17.6706 25.1174C17.1111 24.7082 16.5469 24.3937 15.8817 24.2598C15.2997 24.1425 14.7003 24.1425 14.1183 24.2598C13.4531 24.3937 12.8889 24.7082 12.3294 25.1174C11.7942 25.5087 11.1881 26.0448 10.4572 26.6913L10.4179 26.7261C8.66831 28.2736 7.4254 29.3708 6.43748 30.0705C5.42468 30.7879 4.92273 30.9039 4.62327 30.8696C4.15528 30.8161 3.71426 30.6144 3.36356 30.2912C3.13445 30.08 2.88922 29.6132 2.75628 28.3691C2.62656 27.1553 2.625 25.4858 2.625 23.1364V15.6463C2.625 12.3983 2.62734 10.0744 2.86231 8.30777C3.09314 6.57228 3.52999 5.54455 4.2768 4.78965Z" fill="white"/>
</svg>
